<svg width="14" height="7" viewBox="0 0 14 7" fill="none" xmlns="http://www.w3.org/2000/svg">
<path d="M7.65085 4.7835C7.56563 4.86942 7.46425 4.93762 7.35254 4.98415C7.24084 5.03069 7.12102 5.05465 7.00001 5.05465C6.879 5.05465 6.75919 5.03069 6.64748 4.98415C6.53578 4.93762 6.43439 4.86942 6.34918 4.7835L2.15084 0.576002C2.06562 0.490084 1.96424 0.421889 1.85253 0.375351C1.74083 0.328813 1.62102 0.304853 1.50001 0.304853C1.37899 0.304853 1.25918 0.328813 1.14748 0.375351C1.03577 0.421889 0.934387 0.490084 0.849171 0.576002C0.678441 0.747751 0.582611 0.980082 0.582611 1.22225C0.582611 1.46442 0.678441 1.69675 0.849171 1.8685L5.05668 6.076C5.5723 6.59099 6.27126 6.88025 7.00001 6.88025C7.72877 6.88025 8.42772 6.59099 8.94335 6.076L13.1509 1.8685C13.3202 1.69776 13.4157 1.46731 13.4167 1.22684C13.4174 1.1062 13.3943 0.986605 13.3486 0.87492C13.303 0.763236 13.2358 0.661655 13.1509 0.576002C13.0656 0.490084 12.9643 0.421889 12.8525 0.375351C12.7408 0.328813 12.621 0.304853 12.5 0.304853C12.379 0.304853 12.2592 0.328813 12.1475 0.375351C12.0358 0.421889 11.9344 0.490084 11.8492 0.576002L7.65085 4.7835Z" fill="#FD9222"/>
</svg>
