<svg aria-hidden="true" style="position: absolute; width: 0; height: 0; overflow: hidden;" version="1.1" xmlns="http://www.w3.org/2000/svg" xmlns:xlink="http://www.w3.org/1999/xlink">
<defs>
<symbol id="icon-chocolate" viewBox="0 0 32 32">
<path fill="#fcf1e0" style="fill: var(--color1, #fcf1e0)" d="M3.944 20.076l10.777-17.424 0.64-0.674 8.236 5.491 0.056 3.314 2.010 3.28-8.88 14.077-12.839-8.063z"></path>
<path fill="none" stroke="#fd9222" style="stroke: var(--color2, #fd9222)" stroke-linejoin="round" stroke-linecap="round" stroke-miterlimit="4" stroke-width="2.6667" d="M21.635 23.88l-14.185-8.864M11.361 8.599l14.186 8.864M10.63 25.864l11.736-19.25M27.176 14.789c-3.040-1.899-4.234-3.384-2.278-6.592l-9.626-6.015-11.736 19.25 14.185 8.864 9.454-15.507z"></path>
</symbol>
<symbol id="icon-arrow" viewBox="0 0 32 32">
<path  stroke-linejoin="round" stroke-linecap="round" stroke-miterlimit="4" stroke-width="1.3333" d="M9.143 16h13.714M22.857 16l-3.429-3.429M22.857 16l-3.429 3.429"></path>
<path  stroke-linejoin="round" stroke-linecap="round" stroke-miterlimit="4" stroke-width="1.3333" d="M16 30.857c8.205 0 14.857-6.652 14.857-14.857s-6.652-14.857-14.857-14.857c-8.205 0-14.857 6.652-14.857 14.857s6.652 14.857 14.857 14.857z"></path>
</symbol>
<symbol id="icon-play" viewBox="0 0 32 32">
<path fill="#f5f4f4" style="fill: var(--color3, #f5f4f4)" d="M10.909 24v-15.273l14.545 7.636-14.545 7.636z"></path>
<path fill="none" stroke="#fff" style="stroke: var(--color4, #fff)" stroke-linejoin="miter" stroke-linecap="butt" stroke-miterlimit="4" stroke-width="0.7273" d="M31.636 16c0 8.636-7.001 15.636-15.636 15.636s-15.636-7.001-15.636-15.636c0-8.636 7.001-15.636 15.636-15.636s15.636 7.001 15.636 15.636z"></path>
</symbol>
<symbol id="icon-s" viewBox="0 0 32 32">
<path fill="#fd9222" style="fill: var(--color2, #fd9222)" d="M16 0.762c-8.381 0-15.238 6.857-15.238 15.238s6.857 15.238 15.238 15.238c8.381 0 15.238-6.857 15.238-15.238s-6.857-15.238-15.238-15.238zM16 28.19c-6.705 0-12.19-5.486-12.19-12.19s5.486-12.191 12.19-12.191c6.705 0 12.191 5.486 12.191 12.191s-5.486 12.19-12.191 12.19z"></path>
<path fill="#fd9222" style="fill: var(--color2, #fd9222)" d="M17.981 14.476h-3.962c-0.762 0-1.371-0.61-1.371-1.371s0.61-1.371 1.371-1.371h5.638c0.914 0 1.524-0.61 1.524-1.524s-0.61-1.524-1.524-1.524h-2.133v-1.371c0-0.914-0.61-1.524-1.524-1.524s-1.524 0.61-1.524 1.524v1.371h-0.457c-2.438 0-4.419 1.981-4.419 4.419s1.981 4.419 4.419 4.419h3.809c0.762 0 1.371 0.61 1.371 1.371s-0.61 1.371-1.371 1.371h-5.638c-0.914 0-1.524 0.61-1.524 1.524s0.61 1.524 1.524 1.524h2.286v1.371c0 0.914 0.61 1.524 1.524 1.524s1.524-0.61 1.524-1.524v-1.371h0.457c2.438 0 4.419-1.981 4.419-4.419s-1.981-4.419-4.419-4.419z"></path>
</symbol>
<symbol id="icon-benefit1" viewBox="0 0 31 32">
<path fill="#111" style="fill: var(--color5, #111)" d="M13.046 0.456l8.306 8.316 0.088-0.088c0.174-0.17 0.407-0.267 0.65-0.27s0.478 0.089 0.656 0.255l0.963 0.963c0.337 0.337 0.348 0.85 0.092 1.207l-0.004 0.008-0.158 0.212 6.797 6.797c0.607 0.607 0.607 1.578 0 2.185l-10.406 10.406c-0.607 0.607-1.578 0.607-2.185 0l-4.907-4.907c-0.082 0.103-0.184 0.187-0.3 0.247s-0.244 0.095-0.375 0.103c-0.131 0.007-0.262-0.013-0.384-0.060s-0.234-0.119-0.326-0.212l-2.869-2.869c-0.17-0.174-0.267-0.407-0.27-0.65s0.089-0.478 0.255-0.656l0.007-0.008 0.085-0.084-8.306-8.306c-0.607-0.607-0.607-1.578 0-2.185l10.406-10.406c0.607-0.607 1.578-0.607 2.185 0v0.001zM20.308 9.814l-1.938-1.937c-0.061-0.063-0.134-0.113-0.214-0.147s-0.167-0.052-0.255-0.052-0.174 0.018-0.255 0.052c-0.081 0.034-0.154 0.084-0.214 0.147l-3.95 3.95c-0.063 0.062-0.112 0.136-0.146 0.217s-0.051 0.169-0.051 0.257 0.017 0.176 0.051 0.257c0.034 0.081 0.084 0.155 0.146 0.217l1.93 1.93 0.673-0.673-1.727-1.727 3.542-3.553 1.731 1.737 0.676-0.676zM14.707 15.41l-1.935-1.935c-0.061-0.063-0.134-0.113-0.214-0.147s-0.167-0.052-0.255-0.052-0.174 0.018-0.255 0.052c-0.081 0.034-0.153 0.084-0.214 0.147l-3.961 3.961c-0.265 0.254-0.265 0.673 0 0.938l1.933 1.933 0.68-0.68-1.732-1.726 3.553-3.542 1.726 1.725 0.675-0.674zM7.528 6.834l3.95 3.95c0.265 0.265 0.684 0.265 0.938-0.011l3.95-3.95c0.063-0.060 0.113-0.132 0.147-0.211s0.052-0.165 0.052-0.252h0.011c0-0.166-0.066-0.342-0.199-0.474l-3.95-3.95c-0.062-0.063-0.136-0.113-0.217-0.147s-0.169-0.051-0.257-0.051c-0.088 0-0.176 0.018-0.257 0.051s-0.155 0.084-0.217 0.147l-3.95 3.961c-0.265 0.254-0.265 0.673 0 0.938zM1.934 12.429l3.95 3.95c0.265 0.265 0.684 0.265 0.938 0l3.95-3.95c0.064-0.061 0.115-0.135 0.149-0.216s0.051-0.17 0.050-0.258h0.011c0-0.177-0.066-0.342-0.199-0.474l-3.95-3.95c-0.061-0.063-0.134-0.113-0.214-0.147s-0.167-0.052-0.255-0.052c-0.087 0-0.174 0.018-0.255 0.052s-0.153 0.084-0.214 0.147l-3.961 3.961c-0.265 0.254-0.265 0.673 0 0.938zM9.584 22.088l2.606 2.607 10.633-14.389-0.723-0.723-12.516 12.504z"></path>
<path fill="#fd9222" style="fill: var(--color2, #fd9222)" d="M13.046 0.456l8.306 8.316 0.088-0.088c0.174-0.17 0.407-0.267 0.65-0.27s0.478 0.089 0.656 0.255l0.963 0.963c0.337 0.337 0.348 0.85 0.092 1.207l-0.004 0.008-0.158 0.212 6.797 6.797c0.607 0.607 0.607 1.578 0 2.185l-10.406 10.406c-0.607 0.607-1.578 0.607-2.185 0l-4.907-4.907c-0.082 0.103-0.184 0.187-0.3 0.247s-0.244 0.095-0.375 0.103c-0.131 0.007-0.262-0.013-0.384-0.060s-0.234-0.119-0.326-0.212l-2.869-2.869c-0.17-0.174-0.267-0.407-0.27-0.65s0.089-0.478 0.255-0.656l0.007-0.008 0.085-0.084-8.306-8.306c-0.607-0.607-0.607-1.578 0-2.185l10.406-10.406c0.607-0.607 1.578-0.607 2.185 0v0.001zM20.308 9.814l-1.938-1.937c-0.061-0.063-0.134-0.113-0.214-0.147s-0.167-0.052-0.255-0.052-0.174 0.018-0.255 0.052c-0.081 0.034-0.154 0.084-0.214 0.147l-3.95 3.95c-0.063 0.062-0.112 0.136-0.146 0.217s-0.051 0.169-0.051 0.257 0.017 0.176 0.051 0.257c0.034 0.081 0.084 0.155 0.146 0.217l1.93 1.93 0.673-0.673-1.727-1.727 3.542-3.553 1.731 1.737 0.676-0.676zM14.707 15.41l-1.935-1.935c-0.061-0.063-0.134-0.113-0.214-0.147s-0.167-0.052-0.255-0.052-0.174 0.018-0.255 0.052c-0.081 0.034-0.153 0.084-0.214 0.147l-3.961 3.961c-0.265 0.254-0.265 0.673 0 0.938l1.933 1.933 0.68-0.68-1.732-1.726 3.553-3.542 1.726 1.725 0.675-0.674zM7.528 6.834l3.95 3.95c0.265 0.265 0.684 0.265 0.938-0.011l3.95-3.95c0.063-0.060 0.113-0.132 0.147-0.211s0.052-0.165 0.052-0.252h0.011c0-0.166-0.066-0.342-0.199-0.474l-3.95-3.95c-0.062-0.063-0.136-0.113-0.217-0.147s-0.169-0.051-0.257-0.051c-0.088 0-0.176 0.018-0.257 0.051s-0.155 0.084-0.217 0.147l-3.95 3.961c-0.265 0.254-0.265 0.673 0 0.938zM1.934 12.429l3.95 3.95c0.265 0.265 0.684 0.265 0.938 0l3.95-3.95c0.064-0.061 0.115-0.135 0.149-0.216s0.051-0.17 0.050-0.258h0.011c0-0.177-0.066-0.342-0.199-0.474l-3.95-3.95c-0.061-0.063-0.134-0.113-0.214-0.147s-0.167-0.052-0.255-0.052c-0.087 0-0.174 0.018-0.255 0.052s-0.153 0.084-0.214 0.147l-3.961 3.961c-0.265 0.254-0.265 0.673 0 0.938zM9.584 22.088l2.606 2.607 10.633-14.389-0.723-0.723-12.516 12.504z"></path>
</symbol>
<symbol id="icon-spoon" viewBox="0 0 32 32">
<path fill="#fd9222" style="fill: var(--color2, #fd9222)" d="M15.451 14.106c-0.783-0.95-1.177-2.116-1.177-3.282 0-4.324 5.181-8.642 10.362-8.642 2.86 0 5.181 2.321 5.181 5.182 0 5.182-4.318 10.364-8.646 10.364-1.166 0-2.331-0.394-3.281-1.177l-12.758 12.761c-0.675 0.675-1.77 0.675-2.445 0s-0.675-1.771 0-2.445l12.764-12.761z"></path>
</symbol>
<symbol id="icon-facebook" viewBox="0 0 14 32">
<path d="M11.804 0.853h1.28v4.8h-1.6c-0.64 0-1.28 0-1.6 0.32s-0.32 0.64-0.32 1.387v1.707h3.52v4.053h-3.52v17.6h-5.44v-17.707h-2.88v-4.053h2.88v-1.387c0-2.347 0.32-4.053 0.96-4.8 0.96-1.387 2.88-2.027 5.76-2.027 0.32 0.107 0.64 0.107 0.96 0.107z"></path>
</symbol>
<symbol id="icon-instagram" viewBox="0 0 32 32">
<path d="M31.261 9.707c-0.019-1.361-0.28-2.656-0.741-3.85l0.026 0.076c-0.818-2.065-2.424-3.669-4.438-4.465l-0.053-0.019c-1.104-0.427-2.381-0.688-3.716-0.717l-0.012-0c-1.643-0.072-2.163-0.093-6.33-0.093s-4.698 0-6.328 0.093c-1.347 0.029-2.624 0.289-3.805 0.743l0.077-0.026c-2.067 0.814-3.673 2.418-4.471 4.43l-0.019 0.053c-0.429 1.102-0.689 2.378-0.715 3.71l-0 0.011c-0.074 1.64-0.096 2.16-0.096 6.318 0 4.16 0 4.69 0.096 6.318 0.027 1.345 0.286 2.621 0.74 3.802l-0.026-0.077c0.819 2.065 2.426 3.669 4.441 4.463l0.053 0.018c1.101 0.444 2.375 0.722 3.709 0.767l0.019 0c1.642 0.072 2.162 0.094 6.328 0.094s4.699 0 6.33-0.096c1.346-0.027 2.623-0.287 3.805-0.74l-0.077 0.026c2.067-0.815 3.674-2.418 4.474-4.43l0.019-0.053c0.428-1.104 0.687-2.38 0.713-3.714l0-0.011c0.074-1.638 0.096-2.158 0.096-6.32-0.003-4.158-0.003-4.685-0.099-6.315zM15.989 23.837c-0.003 0-0.006 0-0.010 0-4.349 0-7.875-3.524-7.878-7.872v-0c0.003-4.349 3.529-7.874 7.878-7.874 0.003 0 0.007 0 0.010 0h-0.001c0.001 0 0.003 0 0.005 0 4.349 0 7.875 3.523 7.88 7.872v0c-0.004 4.349-3.53 7.874-7.88 7.874-0.002 0-0.003 0-0.005 0h0zM24.189 9.635c-1.014 0-1.836-0.822-1.836-1.836s0.822-1.836 1.836-1.836v0c1.014 0 1.836 0.822 1.836 1.836s-0.822 1.836-1.836 1.836v0z"></path>
</symbol>
<symbol id="icon-twitter" viewBox="0 0 38 32">
<path d="M37.647 3.622c-1.294 0.58-2.796 1.008-4.368 1.21l-0.080 0.008c1.6-0.961 2.802-2.445 3.38-4.211l0.015-0.054c-1.409 0.851-3.048 1.499-4.795 1.852l-0.099 0.017c-1.412-1.505-3.412-2.442-5.632-2.442-4.261 0-7.716 3.454-7.716 7.716 0 0.001 0 0.002 0 0.003v-0c0 0.61 0.051 1.199 0.179 1.758-6.417-0.312-12.094-3.388-15.908-8.072-0.664 1.118-1.058 2.464-1.062 3.901v0.001c0 2.673 1.378 5.043 3.428 6.415-1.284-0.036-2.479-0.384-3.523-0.97l0.038 0.020v0.085c0.005 3.722 2.632 6.829 6.133 7.573l0.051 0.009c-0.589 0.162-1.265 0.254-1.963 0.254-0.021 0-0.042-0-0.064-0l0.003 0c-0.493 0-0.992-0.028-1.461-0.132 1 3.057 3.836 5.304 7.211 5.376-2.606 2.054-5.936 3.294-9.556 3.294-0.005 0-0.010 0-0.015 0h0.001c-0.026 0-0.057 0-0.088 0-0.62 0-1.231-0.039-1.83-0.115l0.071 0.007c3.325 2.172 7.396 3.464 11.769 3.464 0.025 0 0.050-0 0.074-0h-0.004c14.202 0 21.967-11.765 21.967-21.963 0-0.339-0.011-0.67-0.028-0.998 1.528-1.101 2.812-2.429 3.833-3.949l0.035-0.055z"></path>
</symbol>
<symbol id="icon-down" viewBox="0 0 64 32">
<path fill="#fd9222" style="fill: var(--color2, #fd9222)" d="M34.971 21.87c-0.759 0.763-1.81 1.235-2.971 1.235s-2.212-0.472-2.971-1.235l-0-0-19.2-19.241c-0.768-0.828-1.862-1.345-3.077-1.345-2.315 0-4.192 1.877-4.192 4.192 0 1.206 0.509 2.292 1.324 3.057l0.002 0.002 19.232 19.237c2.274 2.271 5.414 3.675 8.882 3.675s6.608-1.404 8.882-3.675l19.236-19.232c0.752-0.758 1.217-1.801 1.217-2.953 0-2.316-1.877-4.193-4.193-4.193-1.163 0-2.216 0.474-2.976 1.239l-0 0-19.191 19.237z"></path>
</symbol>
<symbol id="icon-close" viewBox="0 0 32 32">
<path d="M32 3.224l-3.224-3.224-12.776 12.776-12.776-12.776-3.224 3.224 12.776 12.776-12.776 12.776 3.224 3.224 12.776-12.776 12.776 12.776 3.224-3.224-12.776-12.776 12.776-12.776z"></path>
</symbol>
</defs>
</svg>
