<svg aria-hidden="true" style="position: absolute; width: 0; height: 0; overflow: hidden;" version="1.1" xmlns="http://www.w3.org/2000/svg" xmlns:xlink="http://www.w3.org/1999/xlink">
<defs>
<symbol id="icon-Vector-1" viewBox="0 0 14 32">
<path d="M11.804 0.853h1.28v4.8h-1.6c-0.64 0-1.28 0-1.6 0.32s-0.32 0.64-0.32 1.387v1.707h3.52v4.053h-3.52v17.6h-5.44v-17.707h-2.88v-4.053h2.88v-1.387c0-2.347 0.32-4.053 0.96-4.8 0.96-1.387 2.88-2.027 5.76-2.027 0.32 0.107 0.64 0.107 0.96 0.107z"></path>
</symbol>
<symbol id="icon-Vector-11" viewBox="0 0 32 32">
<path d="M31.261 9.707c-0.019-1.361-0.28-2.656-0.741-3.85l0.026 0.076c-0.818-2.065-2.424-3.669-4.438-4.465l-0.053-0.019c-1.104-0.427-2.381-0.688-3.716-0.717l-0.012-0c-1.643-0.072-2.163-0.093-6.33-0.093s-4.698 0-6.328 0.093c-1.347 0.029-2.624 0.289-3.805 0.743l0.077-0.026c-2.067 0.814-3.673 2.418-4.471 4.43l-0.019 0.053c-0.429 1.102-0.689 2.378-0.715 3.71l-0 0.011c-0.074 1.64-0.096 2.16-0.096 6.318 0 4.16 0 4.69 0.096 6.318 0.027 1.345 0.286 2.621 0.74 3.802l-0.026-0.077c0.819 2.065 2.426 3.669 4.441 4.463l0.053 0.018c1.101 0.444 2.375 0.722 3.709 0.767l0.019 0c1.642 0.072 2.162 0.094 6.328 0.094s4.699 0 6.33-0.096c1.346-0.027 2.623-0.287 3.805-0.74l-0.077 0.026c2.067-0.815 3.674-2.418 4.474-4.43l0.019-0.053c0.428-1.104 0.687-2.38 0.713-3.714l0-0.011c0.074-1.638 0.096-2.158 0.096-6.32-0.003-4.158-0.003-4.685-0.099-6.315zM15.989 23.837c-0.003 0-0.006 0-0.010 0-4.349 0-7.875-3.524-7.878-7.872v-0c0.003-4.349 3.529-7.874 7.878-7.874 0.003 0 0.007 0 0.010 0h-0.001c0.001 0 0.003 0 0.005 0 4.349 0 7.875 3.523 7.88 7.872v0c-0.004 4.349-3.53 7.874-7.88 7.874-0.002 0-0.003 0-0.005 0h0zM24.189 9.635c-1.014 0-1.836-0.822-1.836-1.836s0.822-1.836 1.836-1.836v0c1.014 0 1.836 0.822 1.836 1.836s-0.822 1.836-1.836 1.836v0z"></path>
</symbol>
<symbol id="icon-Vector-2" viewBox="0 0 38 32">
<path d="M37.647 3.622c-1.294 0.58-2.796 1.008-4.368 1.21l-0.080 0.008c1.6-0.961 2.802-2.445 3.38-4.211l0.015-0.054c-1.409 0.851-3.048 1.499-4.795 1.852l-0.099 0.017c-1.412-1.505-3.412-2.442-5.632-2.442-4.261 0-7.716 3.454-7.716 7.716 0 0.001 0 0.002 0 0.003v-0c0 0.61 0.051 1.199 0.179 1.758-6.417-0.312-12.094-3.388-15.908-8.072-0.664 1.118-1.058 2.464-1.062 3.901v0.001c0 2.673 1.378 5.043 3.428 6.415-1.284-0.036-2.479-0.384-3.523-0.97l0.038 0.020v0.085c0.005 3.722 2.632 6.829 6.133 7.573l0.051 0.009c-0.589 0.162-1.265 0.254-1.963 0.254-0.021 0-0.042-0-0.064-0l0.003 0c-0.493 0-0.992-0.028-1.461-0.132 1 3.057 3.836 5.304 7.211 5.376-2.606 2.054-5.936 3.294-9.556 3.294-0.005 0-0.010 0-0.015 0h0.001c-0.026 0-0.057 0-0.088 0-0.62 0-1.231-0.039-1.83-0.115l0.071 0.007c3.325 2.172 7.396 3.464 11.769 3.464 0.025 0 0.050-0 0.074-0h-0.004c14.202 0 21.967-11.765 21.967-21.963 0-0.339-0.011-0.67-0.028-0.998 1.528-1.101 2.812-2.429 3.833-3.949l0.035-0.055z"></path>
</symbol>
<symbol id="icon-Vector3" viewBox="0 0 64 32">
<path fill="#fd9222" style="fill: var(--color1, #fd9222)" d="M34.971 21.87c-0.759 0.763-1.81 1.235-2.971 1.235s-2.212-0.472-2.971-1.235l-0-0-19.2-19.241c-0.768-0.828-1.862-1.345-3.077-1.345-2.315 0-4.192 1.877-4.192 4.192 0 1.206 0.509 2.292 1.324 3.057l0.002 0.002 19.232 19.237c2.274 2.271 5.414 3.675 8.882 3.675s6.608-1.404 8.882-3.675l19.236-19.232c0.752-0.758 1.217-1.801 1.217-2.953 0-2.316-1.877-4.193-4.193-4.193-1.163 0-2.216 0.474-2.976 1.239l-0 0-19.191 19.237z"></path>
</symbol>
</defs>
</svg>
